solid ascii
  facet normal 9.972037e-01 7.473094e-02 0.000000e+00
    outer loop
      vertex   -6.722034e+00 3.970876e+01 5.000000e+00
      vertex   -6.722034e+00 3.970876e+01 2.500000e+00
      vertex   -6.733203e+00 3.985781e+01 5.000000e+00
    endloop
  endfacet
  facet normal 9.972037e-01 7.473094e-02 0.000000e+00
    outer loop
      vertex   -6.733203e+00 3.985781e+01 5.000000e+00
      vertex   -6.722034e+00 3.970876e+01 2.500000e+00
      vertex   -6.733203e+00 3.985781e+01 2.500000e+00
    endloop
  endfacet
  facet normal 9.972037e-01 -7.473094e-02 0.000000e+00
    outer loop
      vertex   -6.733203e+00 3.985781e+01 5.000000e+00
      vertex   -6.733203e+00 3.985781e+01 2.500000e+00
      vertex   -6.722034e+00 4.000685e+01 5.000000e+00
    endloop
  endfacet
  facet normal 9.972037e-01 -7.473094e-02 0.000000e+00
    outer loop
      vertex   -6.722034e+00 4.000685e+01 5.000000e+00
      vertex   -6.733203e+00 3.985781e+01 2.500000e+00
      vertex   -6.722034e+00 4.000685e+01 2.500000e+00
    endloop
  endfacet
  facet normal 9.749270e-01 -2.225248e-01 0.000000e+00
    outer loop
      vertex   -6.722034e+00 4.000685e+01 5.000000e+00
      vertex   -6.722034e+00 4.000685e+01 2.500000e+00
      vertex   -6.688776e+00 4.015256e+01 5.000000e+00
    endloop
  endfacet
  facet normal 9.749270e-01 -2.225248e-01 0.000000e+00
    outer loop
      vertex   -6.688776e+00 4.015256e+01 5.000000e+00
      vertex   -6.722034e+00 4.000685e+01 2.500000e+00
      vertex   -6.688776e+00 4.015256e+01 2.500000e+00
    endloop
  endfacet
  facet normal 9.308745e-01 -3.653392e-01 0.000000e+00
    outer loop
      vertex   -6.688776e+00 4.015256e+01 5.000000e+00
      vertex   -6.688776e+00 4.015256e+01 2.500000e+00
      vertex   -6.634171e+00 4.029169e+01 5.000000e+00
    endloop
  endfacet
  facet normal 9.308745e-01 -3.653392e-01 0.000000e+00
    outer loop
      vertex   -6.634171e+00 4.029169e+01 5.000000e+00
      vertex   -6.688776e+00 4.015256e+01 2.500000e+00
      vertex   -6.634171e+00 4.029169e+01 2.500000e+00
    endloop
  endfacet
  facet normal 8.660262e-01 -4.999986e-01 0.000000e+00
    outer loop
      vertex   -6.634171e+00 4.029169e+01 5.000000e+00
      vertex   -6.634171e+00 4.029169e+01 2.500000e+00
      vertex   -6.559442e+00 4.042113e+01 5.000000e+00
    endloop
  endfacet
  facet normal 8.660262e-01 -4.999986e-01 0.000000e+00
    outer loop
      vertex   -6.559442e+00 4.042113e+01 5.000000e+00
      vertex   -6.634171e+00 4.029169e+01 2.500000e+00
      vertex   -6.559442e+00 4.042113e+01 2.500000e+00
    endloop
  endfacet
  facet normal 7.818294e-01 -6.234925e-01 0.000000e+00
    outer loop
      vertex   -6.559442e+00 4.042113e+01 5.000000e+00
      vertex   -6.559442e+00 4.042113e+01 2.500000e+00
      vertex   -6.466255e+00 4.053798e+01 5.000000e+00
    endloop
  endfacet
  facet normal 7.818294e-01 -6.234925e-01 0.000000e+00
    outer loop
      vertex   -6.466255e+00 4.053798e+01 5.000000e+00
      vertex   -6.559442e+00 4.042113e+01 2.500000e+00
      vertex   -6.466255e+00 4.053798e+01 2.500000e+00
    endloop
  endfacet
  facet normal 6.801685e-01 -7.330558e-01 0.000000e+00
    outer loop
      vertex   -6.466255e+00 4.053798e+01 5.000000e+00
      vertex   -6.466255e+00 4.053798e+01 2.500000e+00
      vertex   -6.356692e+00 4.063964e+01 5.000000e+00
    endloop
  endfacet
  facet normal 6.801685e-01 -7.330558e-01 0.000000e+00
    outer loop
      vertex   -6.356692e+00 4.063964e+01 5.000000e+00
      vertex   -6.466255e+00 4.053798e+01 2.500000e+00
      vertex   -6.356692e+00 4.063964e+01 2.500000e+00
    endloop
  endfacet
  facet normal 5.633225e-01 -8.262371e-01 0.000000e+00
    outer loop
      vertex   -6.356692e+00 4.063964e+01 5.000000e+00
      vertex   -6.356692e+00 4.063964e+01 2.500000e+00
      vertex   -6.233203e+00 4.072383e+01 5.000000e+00
    endloop
  endfacet
  facet normal 5.633211e-01 -8.262381e-01 1.074450e-07
    outer loop
      vertex   -6.233203e+00 4.072383e+01 5.000000e+00
      vertex   -6.356692e+00 4.063964e+01 2.500000e+00
      vertex   -6.233202e+00 4.072383e+01 2.500000e+00
    endloop
  endfacet
  facet normal 4.338911e-01 -9.009653e-01 8.275816e-08
    outer loop
      vertex   -6.233203e+00 4.072383e+01 5.000000e+00
      vertex   -6.233202e+00 4.072383e+01 2.500000e+00
      vertex   -6.098544e+00 4.078868e+01 5.000000e+00
    endloop
  endfacet
  facet normal 4.338924e-01 -9.009647e-01 0.000000e+00
    outer loop
      vertex   -6.098544e+00 4.078868e+01 5.000000e+00
      vertex   -6.233202e+00 4.072383e+01 2.500000e+00
      vertex   -6.098544e+00 4.078868e+01 2.500000e+00
    endloop
  endfacet
  facet normal 2.947664e-01 -9.555693e-01 0.000000e+00
    outer loop
      vertex   -6.098544e+00 4.078868e+01 5.000000e+00
      vertex   -6.098544e+00 4.078868e+01 2.500000e+00
      vertex   -5.955724e+00 4.083274e+01 5.000000e+00
    endloop
  endfacet
  facet normal 2.947664e-01 -9.555693e-01 0.000000e+00
    outer loop
      vertex   -5.955724e+00 4.083274e+01 5.000000e+00
      vertex   -6.098544e+00 4.078868e+01 2.500000e+00
      vertex   -5.955724e+00 4.083274e+01 2.500000e+00
    endloop
  endfacet
  facet normal 1.490300e-01 -9.888327e-01 0.000000e+00
    outer loop
      vertex   -5.955724e+00 4.083274e+01 5.000000e+00
      vertex   -5.955724e+00 4.083274e+01 2.500000e+00
      vertex   -5.807933e+00 4.085501e+01 5.000000e+00
    endloop
  endfacet
  facet normal 1.490300e-01 -9.888327e-01 0.000000e+00
    outer loop
      vertex   -5.807933e+00 4.085501e+01 5.000000e+00
      vertex   -5.955724e+00 4.083274e+01 2.500000e+00
      vertex   -5.807933e+00 4.085501e+01 2.500000e+00
    endloop
  endfacet
  facet normal 0.000000e+00 -1.000000e+00 0.000000e+00
    outer loop
      vertex   -5.807933e+00 4.085501e+01 5.000000e+00
      vertex   -5.807933e+00 4.085501e+01 2.500000e+00
      vertex   -5.658473e+00 4.085501e+01 5.000000e+00
    endloop
  endfacet
  facet normal 0.000000e+00 -1.000000e+00 -0.000000e+00
    outer loop
      vertex   -5.658473e+00 4.085501e+01 5.000000e+00
      vertex   -5.807933e+00 4.085501e+01 2.500000e+00
      vertex   -5.658473e+00 4.085501e+01 2.500000e+00
    endloop
  endfacet
  facet normal -1.490300e-01 -9.888327e-01 -0.000000e+00
    outer loop
      vertex   -5.658473e+00 4.085501e+01 5.000000e+00
      vertex   -5.658473e+00 4.085501e+01 2.500000e+00
      vertex   -5.510682e+00 4.083274e+01 5.000000e+00
    endloop
  endfacet
  facet normal -1.490300e-01 -9.888327e-01 -0.000000e+00
    outer loop
      vertex   -5.510682e+00 4.083274e+01 5.000000e+00
      vertex   -5.658473e+00 4.085501e+01 2.500000e+00
      vertex   -5.510682e+00 4.083274e+01 2.500000e+00
    endloop
  endfacet
  facet normal -2.947664e-01 -9.555693e-01 -0.000000e+00
    outer loop
      vertex   -5.510682e+00 4.083274e+01 5.000000e+00
      vertex   -5.510682e+00 4.083274e+01 2.500000e+00
      vertex   -5.367862e+00 4.078868e+01 5.000000e+00
    endloop
  endfacet
  facet normal -2.947664e-01 -9.555693e-01 -0.000000e+00
    outer loop
      vertex   -5.367862e+00 4.078868e+01 5.000000e+00
      vertex   -5.510682e+00 4.083274e+01 2.500000e+00
      vertex   -5.367862e+00 4.078868e+01 2.500000e+00
    endloop
  endfacet
  facet normal -4.338924e-01 -9.009647e-01 -0.000000e+00
    outer loop
      vertex   -5.367862e+00 4.078868e+01 5.000000e+00
      vertex   -5.367862e+00 4.078868e+01 2.500000e+00
      vertex   -5.233203e+00 4.072383e+01 5.000000e+00
    endloop
  endfacet
  facet normal -4.338924e-01 -9.009647e-01 -0.000000e+00
    outer loop
      vertex   -5.233203e+00 4.072383e+01 5.000000e+00
      vertex   -5.367862e+00 4.078868e+01 2.500000e+00
      vertex   -5.233203e+00 4.072383e+01 2.500000e+00
    endloop
  endfacet
  facet normal -5.633211e-01 -8.262381e-01 -0.000000e+00
    outer loop
      vertex   -5.233203e+00 4.072383e+01 5.000000e+00
      vertex   -5.233203e+00 4.072383e+01 2.500000e+00
      vertex   -5.109713e+00 4.063964e+01 5.000000e+00
    endloop
  endfacet
  facet normal -5.633211e-01 -8.262381e-01 -0.000000e+00
    outer loop
      vertex   -5.109713e+00 4.063964e+01 5.000000e+00
      vertex   -5.233203e+00 4.072383e+01 2.500000e+00
      vertex   -5.109713e+00 4.063964e+01 2.500000e+00
    endloop
  endfacet
  facet normal -6.801685e-01 -7.330558e-01 -0.000000e+00
    outer loop
      vertex   -5.109713e+00 4.063964e+01 5.000000e+00
      vertex   -5.109713e+00 4.063964e+01 2.500000e+00
      vertex   -5.000151e+00 4.053798e+01 5.000000e+00
    endloop
  endfacet
  facet normal -6.801685e-01 -7.330558e-01 -0.000000e+00
    outer loop
      vertex   -5.000151e+00 4.053798e+01 5.000000e+00
      vertex   -5.109713e+00 4.063964e+01 2.500000e+00
      vertex   -5.000151e+00 4.053798e+01 2.500000e+00
    endloop
  endfacet
  facet normal -7.818294e-01 -6.234925e-01 -0.000000e+00
    outer loop
      vertex   -5.000151e+00 4.053798e+01 5.000000e+00
      vertex   -5.000151e+00 4.053798e+01 2.500000e+00
      vertex   -4.906964e+00 4.042113e+01 5.000000e+00
    endloop
  endfacet
  facet normal -7.818294e-01 -6.234925e-01 -0.000000e+00
    outer loop
      vertex   -4.906964e+00 4.042113e+01 5.000000e+00
      vertex   -5.000151e+00 4.053798e+01 2.500000e+00
      vertex   -4.906964e+00 4.042113e+01 2.500000e+00
    endloop
  endfacet
  facet normal -8.660262e-01 -4.999986e-01 -0.000000e+00
    outer loop
      vertex   -4.906964e+00 4.042113e+01 5.000000e+00
      vertex   -4.906964e+00 4.042113e+01 2.500000e+00
      vertex   -4.832234e+00 4.029169e+01 5.000000e+00
    endloop
  endfacet
  facet normal -8.660262e-01 -4.999986e-01 -0.000000e+00
    outer loop
      vertex   -4.832234e+00 4.029169e+01 5.000000e+00
      vertex   -4.906964e+00 4.042113e+01 2.500000e+00
      vertex   -4.832234e+00 4.029169e+01 2.500000e+00
    endloop
  endfacet
  facet normal -9.308745e-01 -3.653392e-01 -0.000000e+00
    outer loop
      vertex   -4.832234e+00 4.029169e+01 5.000000e+00
      vertex   -4.832234e+00 4.029169e+01 2.500000e+00
      vertex   -4.777630e+00 4.015256e+01 5.000000e+00
    endloop
  endfacet
  facet normal -9.308745e-01 -3.653392e-01 -0.000000e+00
    outer loop
      vertex   -4.777630e+00 4.015256e+01 5.000000e+00
      vertex   -4.832234e+00 4.029169e+01 2.500000e+00
      vertex   -4.777630e+00 4.015256e+01 2.500000e+00
    endloop
  endfacet
  facet normal -9.749270e-01 -2.225248e-01 -0.000000e+00
    outer loop
      vertex   -4.777630e+00 4.015256e+01 5.000000e+00
      vertex   -4.777630e+00 4.015256e+01 2.500000e+00
      vertex   -4.744372e+00 4.000685e+01 5.000000e+00
    endloop
  endfacet
  facet normal -9.749270e-01 -2.225248e-01 -0.000000e+00
    outer loop
      vertex   -4.744372e+00 4.000685e+01 5.000000e+00
      vertex   -4.777630e+00 4.015256e+01 2.500000e+00
      vertex   -4.744372e+00 4.000685e+01 2.500000e+00
    endloop
  endfacet
  facet normal -9.972039e-01 -7.472777e-02 -0.000000e+00
    outer loop
      vertex   -4.744372e+00 4.000685e+01 5.000000e+00
      vertex   -4.744372e+00 4.000685e+01 2.500000e+00
      vertex   -4.733203e+00 3.985781e+01 5.000000e+00
    endloop
  endfacet
  facet normal -9.972039e-01 -7.472777e-02 -0.000000e+00
    outer loop
      vertex   -4.733203e+00 3.985781e+01 5.000000e+00
      vertex   -4.744372e+00 4.000685e+01 2.500000e+00
      vertex   -4.733203e+00 3.985781e+01 2.500000e+00
    endloop
  endfacet
  facet normal -9.972039e-01 7.472777e-02 0.000000e+00
    outer loop
      vertex   -4.733203e+00 3.985781e+01 5.000000e+00
      vertex   -4.733203e+00 3.985781e+01 2.500000e+00
      vertex   -4.744372e+00 3.970876e+01 5.000000e+00
    endloop
  endfacet
  facet normal -9.972039e-01 7.472777e-02 0.000000e+00
    outer loop
      vertex   -4.744372e+00 3.970876e+01 5.000000e+00
      vertex   -4.733203e+00 3.985781e+01 2.500000e+00
      vertex   -4.744372e+00 3.970876e+01 2.500000e+00
    endloop
  endfacet
  facet normal -9.749270e-01 2.225248e-01 0.000000e+00
    outer loop
      vertex   -4.744372e+00 3.970876e+01 5.000000e+00
      vertex   -4.744372e+00 3.970876e+01 2.500000e+00
      vertex   -4.777630e+00 3.956305e+01 5.000000e+00
    endloop
  endfacet
  facet normal -9.749270e-01 2.225248e-01 0.000000e+00
    outer loop
      vertex   -4.777630e+00 3.956305e+01 5.000000e+00
      vertex   -4.744372e+00 3.970876e+01 2.500000e+00
      vertex   -4.777630e+00 3.956305e+01 2.500000e+00
    endloop
  endfacet
  facet normal -9.308745e-01 3.653392e-01 0.000000e+00
    outer loop
      vertex   -4.777630e+00 3.956305e+01 5.000000e+00
      vertex   -4.777630e+00 3.956305e+01 2.500000e+00
      vertex   -4.832234e+00 3.942392e+01 5.000000e+00
    endloop
  endfacet
  facet normal -9.308745e-01 3.653392e-01 0.000000e+00
    outer loop
      vertex   -4.832234e+00 3.942392e+01 5.000000e+00
      vertex   -4.777630e+00 3.956305e+01 2.500000e+00
      vertex   -4.832234e+00 3.942392e+01 2.500000e+00
    endloop
  endfacet
  facet normal -8.660262e-01 4.999986e-01 0.000000e+00
    outer loop
      vertex   -4.832234e+00 3.942392e+01 5.000000e+00
      vertex   -4.832234e+00 3.942392e+01 2.500000e+00
      vertex   -4.906964e+00 3.929449e+01 5.000000e+00
    endloop
  endfacet
  facet normal -8.660262e-01 4.999986e-01 0.000000e+00
    outer loop
      vertex   -4.906964e+00 3.929449e+01 5.000000e+00
      vertex   -4.832234e+00 3.942392e+01 2.500000e+00
      vertex   -4.906964e+00 3.929449e+01 2.500000e+00
    endloop
  endfacet
  facet normal -7.818294e-01 6.234925e-01 0.000000e+00
    outer loop
      vertex   -4.906964e+00 3.929449e+01 5.000000e+00
      vertex   -4.906964e+00 3.929449e+01 2.500000e+00
      vertex   -5.000151e+00 3.917764e+01 5.000000e+00
    endloop
  endfacet
  facet normal -7.818294e-01 6.234925e-01 0.000000e+00
    outer loop
      vertex   -5.000151e+00 3.917764e+01 5.000000e+00
      vertex   -4.906964e+00 3.929449e+01 2.500000e+00
      vertex   -5.000151e+00 3.917764e+01 2.500000e+00
    endloop
  endfacet
  facet normal -6.801685e-01 7.330558e-01 0.000000e+00
    outer loop
      vertex   -5.000151e+00 3.917764e+01 5.000000e+00
      vertex   -5.000151e+00 3.917764e+01 2.500000e+00
      vertex   -5.109713e+00 3.907598e+01 5.000000e+00
    endloop
  endfacet
  facet normal -6.801685e-01 7.330558e-01 0.000000e+00
    outer loop
      vertex   -5.109713e+00 3.907598e+01 5.000000e+00
      vertex   -5.000151e+00 3.917764e+01 2.500000e+00
      vertex   -5.109713e+00 3.907598e+01 2.500000e+00
    endloop
  endfacet
  facet normal -5.633211e-01 8.262381e-01 0.000000e+00
    outer loop
      vertex   -5.109713e+00 3.907598e+01 5.000000e+00
      vertex   -5.109713e+00 3.907598e+01 2.500000e+00
      vertex   -5.233203e+00 3.899178e+01 5.000000e+00
    endloop
  endfacet
  facet normal -5.633211e-01 8.262381e-01 0.000000e+00
    outer loop
      vertex   -5.233203e+00 3.899178e+01 5.000000e+00
      vertex   -5.109713e+00 3.907598e+01 2.500000e+00
      vertex   -5.233203e+00 3.899178e+01 2.500000e+00
    endloop
  endfacet
  facet normal -4.338924e-01 9.009647e-01 0.000000e+00
    outer loop
      vertex   -5.233203e+00 3.899178e+01 5.000000e+00
      vertex   -5.233203e+00 3.899178e+01 2.500000e+00
      vertex   -5.367862e+00 3.892693e+01 5.000000e+00
    endloop
  endfacet
  facet normal -4.338924e-01 9.009647e-01 0.000000e+00
    outer loop
      vertex   -5.367862e+00 3.892693e+01 5.000000e+00
      vertex   -5.233203e+00 3.899178e+01 2.500000e+00
      vertex   -5.367862e+00 3.892693e+01 2.500000e+00
    endloop
  endfacet
  facet normal -2.947664e-01 9.555693e-01 0.000000e+00
    outer loop
      vertex   -5.367862e+00 3.892693e+01 5.000000e+00
      vertex   -5.367862e+00 3.892693e+01 2.500000e+00
      vertex   -5.510682e+00 3.888288e+01 5.000000e+00
    endloop
  endfacet
  facet normal -2.947664e-01 9.555693e-01 0.000000e+00
    outer loop
      vertex   -5.510682e+00 3.888288e+01 5.000000e+00
      vertex   -5.367862e+00 3.892693e+01 2.500000e+00
      vertex   -5.510682e+00 3.888288e+01 2.500000e+00
    endloop
  endfacet
  facet normal -1.490300e-01 9.888327e-01 0.000000e+00
    outer loop
      vertex   -5.510682e+00 3.888288e+01 5.000000e+00
      vertex   -5.510682e+00 3.888288e+01 2.500000e+00
      vertex   -5.658473e+00 3.886060e+01 5.000000e+00
    endloop
  endfacet
  facet normal -1.490300e-01 9.888327e-01 0.000000e+00
    outer loop
      vertex   -5.658473e+00 3.886060e+01 5.000000e+00
      vertex   -5.510682e+00 3.888288e+01 2.500000e+00
      vertex   -5.658473e+00 3.886060e+01 2.500000e+00
    endloop
  endfacet
  facet normal 0.000000e+00 1.000000e+00 0.000000e+00
    outer loop
      vertex   -5.658473e+00 3.886060e+01 5.000000e+00
      vertex   -5.658473e+00 3.886060e+01 2.500000e+00
      vertex   -5.807933e+00 3.886060e+01 5.000000e+00
    endloop
  endfacet
  facet normal 0.000000e+00 1.000000e+00 0.000000e+00
    outer loop
      vertex   -5.807933e+00 3.886060e+01 5.000000e+00
      vertex   -5.658473e+00 3.886060e+01 2.500000e+00
      vertex   -5.807933e+00 3.886060e+01 2.500000e+00
    endloop
  endfacet
  facet normal 1.490300e-01 9.888327e-01 0.000000e+00
    outer loop
      vertex   -5.807933e+00 3.886060e+01 5.000000e+00
      vertex   -5.807933e+00 3.886060e+01 2.500000e+00
      vertex   -5.955724e+00 3.888288e+01 5.000000e+00
    endloop
  endfacet
  facet normal 1.490300e-01 9.888327e-01 0.000000e+00
    outer loop
      vertex   -5.955724e+00 3.888288e+01 5.000000e+00
      vertex   -5.807933e+00 3.886060e+01 2.500000e+00
      vertex   -5.955724e+00 3.888288e+01 2.500000e+00
    endloop
  endfacet
  facet normal 2.947664e-01 9.555693e-01 0.000000e+00
    outer loop
      vertex   -5.955724e+00 3.888288e+01 5.000000e+00
      vertex   -5.955724e+00 3.888288e+01 2.500000e+00
      vertex   -6.098544e+00 3.892693e+01 5.000000e+00
    endloop
  endfacet
  facet normal 2.947664e-01 9.555693e-01 0.000000e+00
    outer loop
      vertex   -6.098544e+00 3.892693e+01 5.000000e+00
      vertex   -5.955724e+00 3.888288e+01 2.500000e+00
      vertex   -6.098544e+00 3.892693e+01 2.500000e+00
    endloop
  endfacet
  facet normal 4.338911e-01 9.009653e-01 0.000000e+00
    outer loop
      vertex   -6.098544e+00 3.892693e+01 5.000000e+00
      vertex   -6.098544e+00 3.892693e+01 2.500000e+00
      vertex   -6.233203e+00 3.899178e+01 5.000000e+00
    endloop
  endfacet
  facet normal 4.338924e-01 9.009647e-01 8.275840e-08
    outer loop
      vertex   -6.233203e+00 3.899178e+01 5.000000e+00
      vertex   -6.098544e+00 3.892693e+01 2.500000e+00
      vertex   -6.233202e+00 3.899178e+01 2.500000e+00
    endloop
  endfacet
  facet normal 5.633225e-01 8.262371e-01 1.074453e-07
    outer loop
      vertex   -6.233203e+00 3.899178e+01 5.000000e+00
      vertex   -6.233202e+00 3.899178e+01 2.500000e+00
      vertex   -6.356692e+00 3.907598e+01 5.000000e+00
    endloop
  endfacet
  facet normal 5.633211e-01 8.262381e-01 0.000000e+00
    outer loop
      vertex   -6.356692e+00 3.907598e+01 5.000000e+00
      vertex   -6.233202e+00 3.899178e+01 2.500000e+00
      vertex   -6.356692e+00 3.907598e+01 2.500000e+00
    endloop
  endfacet
  facet normal 6.801685e-01 7.330558e-01 0.000000e+00
    outer loop
      vertex   -6.356692e+00 3.907598e+01 5.000000e+00
      vertex   -6.356692e+00 3.907598e+01 2.500000e+00
      vertex   -6.466255e+00 3.917764e+01 5.000000e+00
    endloop
  endfacet
  facet normal 6.801685e-01 7.330558e-01 0.000000e+00
    outer loop
      vertex   -6.466255e+00 3.917764e+01 5.000000e+00
      vertex   -6.356692e+00 3.907598e+01 2.500000e+00
      vertex   -6.466255e+00 3.917764e+01 2.500000e+00
    endloop
  endfacet
  facet normal 7.818294e-01 6.234925e-01 0.000000e+00
    outer loop
      vertex   -6.466255e+00 3.917764e+01 5.000000e+00
      vertex   -6.466255e+00 3.917764e+01 2.500000e+00
      vertex   -6.559442e+00 3.929449e+01 5.000000e+00
    endloop
  endfacet
  facet normal 7.818294e-01 6.234925e-01 0.000000e+00
    outer loop
      vertex   -6.559442e+00 3.929449e+01 5.000000e+00
      vertex   -6.466255e+00 3.917764e+01 2.500000e+00
      vertex   -6.559442e+00 3.929449e+01 2.500000e+00
    endloop
  endfacet
  facet normal 8.660262e-01 4.999986e-01 0.000000e+00
    outer loop
      vertex   -6.559442e+00 3.929449e+01 5.000000e+00
      vertex   -6.559442e+00 3.929449e+01 2.500000e+00
      vertex   -6.634171e+00 3.942392e+01 5.000000e+00
    endloop
  endfacet
  facet normal 8.660262e-01 4.999986e-01 0.000000e+00
    outer loop
      vertex   -6.634171e+00 3.942392e+01 5.000000e+00
      vertex   -6.559442e+00 3.929449e+01 2.500000e+00
      vertex   -6.634171e+00 3.942392e+01 2.500000e+00
    endloop
  endfacet
  facet normal 9.308745e-01 3.653392e-01 0.000000e+00
    outer loop
      vertex   -6.634171e+00 3.942392e+01 5.000000e+00
      vertex   -6.634171e+00 3.942392e+01 2.500000e+00
      vertex   -6.688776e+00 3.956305e+01 5.000000e+00
    endloop
  endfacet
  facet normal 9.308745e-01 3.653392e-01 0.000000e+00
    outer loop
      vertex   -6.688776e+00 3.956305e+01 5.000000e+00
      vertex   -6.634171e+00 3.942392e+01 2.500000e+00
      vertex   -6.688776e+00 3.956305e+01 2.500000e+00
    endloop
  endfacet
  facet normal 9.749270e-01 2.225248e-01 0.000000e+00
    outer loop
      vertex   -6.688776e+00 3.956305e+01 5.000000e+00
      vertex   -6.688776e+00 3.956305e+01 2.500000e+00
      vertex   -6.722034e+00 3.970876e+01 5.000000e+00
    endloop
  endfacet
  facet normal 9.749270e-01 2.225248e-01 0.000000e+00
    outer loop
      vertex   -6.722034e+00 3.970876e+01 5.000000e+00
      vertex   -6.688776e+00 3.956305e+01 2.500000e+00
      vertex   -6.722034e+00 3.970876e+01 2.500000e+00
    endloop
  endfacet
  facet normal 9.972037e-01 -7.473094e-02 0.000000e+00
    outer loop
      vertex   -6.722034e+00 4.000685e+01 0.000000e+00
      vertex   -6.722034e+00 4.000685e+01 2.500000e+00
      vertex   -6.733203e+00 3.985781e+01 0.000000e+00
    endloop
  endfacet
  facet normal 9.972037e-01 -7.473094e-02 0.000000e+00
    outer loop
      vertex   -6.733203e+00 3.985781e+01 0.000000e+00
      vertex   -6.722034e+00 4.000685e+01 2.500000e+00
      vertex   -6.733203e+00 3.985781e+01 2.500000e+00
    endloop
  endfacet
  facet normal 9.972037e-01 7.473094e-02 -0.000000e+00
    outer loop
      vertex   -6.733203e+00 3.985781e+01 0.000000e+00
      vertex   -6.733203e+00 3.985781e+01 2.500000e+00
      vertex   -6.722034e+00 3.970876e+01 0.000000e+00
    endloop
  endfacet
  facet normal 9.972037e-01 7.473094e-02 -0.000000e+00
    outer loop
      vertex   -6.722034e+00 3.970876e+01 0.000000e+00
      vertex   -6.733203e+00 3.985781e+01 2.500000e+00
      vertex   -6.722034e+00 3.970876e+01 2.500000e+00
    endloop
  endfacet
  facet normal 9.749270e-01 2.225248e-01 -0.000000e+00
    outer loop
      vertex   -6.722034e+00 3.970876e+01 0.000000e+00
      vertex   -6.722034e+00 3.970876e+01 2.500000e+00
      vertex   -6.688776e+00 3.956305e+01 0.000000e+00
    endloop
  endfacet
  facet normal 9.749270e-01 2.225248e-01 -0.000000e+00
    outer loop
      vertex   -6.688776e+00 3.956305e+01 0.000000e+00
      vertex   -6.722034e+00 3.970876e+01 2.500000e+00
      vertex   -6.688776e+00 3.956305e+01 2.500000e+00
    endloop
  endfacet
  facet normal 9.308745e-01 3.653392e-01 -0.000000e+00
    outer loop
      vertex   -6.688776e+00 3.956305e+01 0.000000e+00
      vertex   -6.688776e+00 3.956305e+01 2.500000e+00
      vertex   -6.634171e+00 3.942392e+01 0.000000e+00
    endloop
  endfacet
  facet normal 9.308745e-01 3.653392e-01 -0.000000e+00
    outer loop
      vertex   -6.634171e+00 3.942392e+01 0.000000e+00
      vertex   -6.688776e+00 3.956305e+01 2.500000e+00
      vertex   -6.634171e+00 3.942392e+01 2.500000e+00
    endloop
  endfacet
  facet normal 8.660262e-01 4.999986e-01 -0.000000e+00
    outer loop
      vertex   -6.634171e+00 3.942392e+01 0.000000e+00
      vertex   -6.634171e+00 3.942392e+01 2.500000e+00
      vertex   -6.559442e+00 3.929449e+01 0.000000e+00
    endloop
  endfacet
  facet normal 8.660262e-01 4.999986e-01 -0.000000e+00
    outer loop
      vertex   -6.559442e+00 3.929449e+01 0.000000e+00
      vertex   -6.634171e+00 3.942392e+01 2.500000e+00
      vertex   -6.559442e+00 3.929449e+01 2.500000e+00
    endloop
  endfacet
  facet normal 7.818294e-01 6.234925e-01 -0.000000e+00
    outer loop
      vertex   -6.559442e+00 3.929449e+01 0.000000e+00
      vertex   -6.559442e+00 3.929449e+01 2.500000e+00
      vertex   -6.466255e+00 3.917764e+01 0.000000e+00
    endloop
  endfacet
  facet normal 7.818294e-01 6.234925e-01 -0.000000e+00
    outer loop
      vertex   -6.466255e+00 3.917764e+01 0.000000e+00
      vertex   -6.559442e+00 3.929449e+01 2.500000e+00
      vertex   -6.466255e+00 3.917764e+01 2.500000e+00
    endloop
  endfacet
  facet normal 6.801685e-01 7.330558e-01 -0.000000e+00
    outer loop
      vertex   -6.466255e+00 3.917764e+01 0.000000e+00
      vertex   -6.466255e+00 3.917764e+01 2.500000e+00
      vertex   -6.356692e+00 3.907598e+01 0.000000e+00
    endloop
  endfacet
  facet normal 6.801685e-01 7.330558e-01 -0.000000e+00
    outer loop
      vertex   -6.356692e+00 3.907598e+01 0.000000e+00
      vertex   -6.466255e+00 3.917764e+01 2.500000e+00
      vertex   -6.356692e+00 3.907598e+01 2.500000e+00
    endloop
  endfacet
  facet normal 5.633225e-01 8.262371e-01 -0.000000e+00
    outer loop
      vertex   -6.356692e+00 3.907598e+01 0.000000e+00
      vertex   -6.356692e+00 3.907598e+01 2.500000e+00
      vertex   -6.233203e+00 3.899178e+01 0.000000e+00
    endloop
  endfacet
  facet normal 5.633211e-01 8.262381e-01 -1.074450e-07
    outer loop
      vertex   -6.233203e+00 3.899178e+01 0.000000e+00
      vertex   -6.356692e+00 3.907598e+01 2.500000e+00
      vertex   -6.233202e+00 3.899178e+01 2.500000e+00
    endloop
  endfacet
  facet normal 4.338911e-01 9.009653e-01 -8.275816e-08
    outer loop
      vertex   -6.233203e+00 3.899178e+01 0.000000e+00
      vertex   -6.233202e+00 3.899178e+01 2.500000e+00
      vertex   -6.098544e+00 3.892693e+01 0.000000e+00
    endloop
  endfacet
  facet normal 4.338924e-01 9.009647e-01 -0.000000e+00
    outer loop
      vertex   -6.098544e+00 3.892693e+01 0.000000e+00
      vertex   -6.233202e+00 3.899178e+01 2.500000e+00
      vertex   -6.098544e+00 3.892693e+01 2.500000e+00
    endloop
  endfacet
  facet normal 2.947664e-01 9.555693e-01 -0.000000e+00
    outer loop
      vertex   -6.098544e+00 3.892693e+01 0.000000e+00
      vertex   -6.098544e+00 3.892693e+01 2.500000e+00
      vertex   -5.955724e+00 3.888288e+01 0.000000e+00
    endloop
  endfacet
  facet normal 2.947664e-01 9.555693e-01 -0.000000e+00
    outer loop
      vertex   -5.955724e+00 3.888288e+01 0.000000e+00
      vertex   -6.098544e+00 3.892693e+01 2.500000e+00
      vertex   -5.955724e+00 3.888288e+01 2.500000e+00
    endloop
  endfacet
  facet normal 1.490300e-01 9.888327e-01 -0.000000e+00
    outer loop
      vertex   -5.955724e+00 3.888288e+01 0.000000e+00
      vertex   -5.955724e+00 3.888288e+01 2.500000e+00
      vertex   -5.807933e+00 3.886060e+01 0.000000e+00
    endloop
  endfacet
  facet normal 1.490300e-01 9.888327e-01 -0.000000e+00
    outer loop
      vertex   -5.807933e+00 3.886060e+01 0.000000e+00
      vertex   -5.955724e+00 3.888288e+01 2.500000e+00
      vertex   -5.807933e+00 3.886060e+01 2.500000e+00
    endloop
  endfacet
  facet normal 0.000000e+00 1.000000e+00 0.000000e+00
    outer loop
      vertex   -5.807933e+00 3.886060e+01 0.000000e+00
      vertex   -5.807933e+00 3.886060e+01 2.500000e+00
      vertex   -5.658473e+00 3.886060e+01 0.000000e+00
    endloop
  endfacet
  facet normal 0.000000e+00 1.000000e+00 -0.000000e+00
    outer loop
      vertex   -5.658473e+00 3.886060e+01 0.000000e+00
      vertex   -5.807933e+00 3.886060e+01 2.500000e+00
      vertex   -5.658473e+00 3.886060e+01 2.500000e+00
    endloop
  endfacet
  facet normal -1.490300e-01 9.888327e-01 0.000000e+00
    outer loop
      vertex   -5.658473e+00 3.886060e+01 0.000000e+00
      vertex   -5.658473e+00 3.886060e+01 2.500000e+00
      vertex   -5.510682e+00 3.888288e+01 0.000000e+00
    endloop
  endfacet
  facet normal -1.490300e-01 9.888327e-01 0.000000e+00
    outer loop
      vertex   -5.510682e+00 3.888288e+01 0.000000e+00
      vertex   -5.658473e+00 3.886060e+01 2.500000e+00
      vertex   -5.510682e+00 3.888288e+01 2.500000e+00
    endloop
  endfacet
  facet normal -2.947664e-01 9.555693e-01 0.000000e+00
    outer loop
      vertex   -5.510682e+00 3.888288e+01 0.000000e+00
      vertex   -5.510682e+00 3.888288e+01 2.500000e+00
      vertex   -5.367862e+00 3.892693e+01 0.000000e+00
    endloop
  endfacet
  facet normal -2.947664e-01 9.555693e-01 0.000000e+00
    outer loop
      vertex   -5.367862e+00 3.892693e+01 0.000000e+00
      vertex   -5.510682e+00 3.888288e+01 2.500000e+00
      vertex   -5.367862e+00 3.892693e+01 2.500000e+00
    endloop
  endfacet
  facet normal -4.338924e-01 9.009647e-01 0.000000e+00
    outer loop
      vertex   -5.367862e+00 3.892693e+01 0.000000e+00
      vertex   -5.367862e+00 3.892693e+01 2.500000e+00
      vertex   -5.233203e+00 3.899178e+01 0.000000e+00
    endloop
  endfacet
  facet normal -4.338924e-01 9.009647e-01 0.000000e+00
    outer loop
      vertex   -5.233203e+00 3.899178e+01 0.000000e+00
      vertex   -5.367862e+00 3.892693e+01 2.500000e+00
      vertex   -5.233203e+00 3.899178e+01 2.500000e+00
    endloop
  endfacet
  facet normal -5.633211e-01 8.262381e-01 0.000000e+00
    outer loop
      vertex   -5.233203e+00 3.899178e+01 0.000000e+00
      vertex   -5.233203e+00 3.899178e+01 2.500000e+00
      vertex   -5.109713e+00 3.907598e+01 0.000000e+00
    endloop
  endfacet
  facet normal -5.633211e-01 8.262381e-01 0.000000e+00
    outer loop
      vertex   -5.109713e+00 3.907598e+01 0.000000e+00
      vertex   -5.233203e+00 3.899178e+01 2.500000e+00
      vertex   -5.109713e+00 3.907598e+01 2.500000e+00
    endloop
  endfacet
  facet normal -6.801685e-01 7.330558e-01 0.000000e+00
    outer loop
      vertex   -5.109713e+00 3.907598e+01 0.000000e+00
      vertex   -5.109713e+00 3.907598e+01 2.500000e+00
      vertex   -5.000151e+00 3.917764e+01 0.000000e+00
    endloop
  endfacet
  facet normal -6.801685e-01 7.330558e-01 0.000000e+00
    outer loop
      vertex   -5.000151e+00 3.917764e+01 0.000000e+00
      vertex   -5.109713e+00 3.907598e+01 2.500000e+00
      vertex   -5.000151e+00 3.917764e+01 2.500000e+00
    endloop
  endfacet
  facet normal -7.818294e-01 6.234925e-01 0.000000e+00
    outer loop
      vertex   -5.000151e+00 3.917764e+01 0.000000e+00
      vertex   -5.000151e+00 3.917764e+01 2.500000e+00
      vertex   -4.906964e+00 3.929449e+01 0.000000e+00
    endloop
  endfacet
  facet normal -7.818294e-01 6.234925e-01 0.000000e+00
    outer loop
      vertex   -4.906964e+00 3.929449e+01 0.000000e+00
      vertex   -5.000151e+00 3.917764e+01 2.500000e+00
      vertex   -4.906964e+00 3.929449e+01 2.500000e+00
    endloop
  endfacet
  facet normal -8.660262e-01 4.999986e-01 0.000000e+00
    outer loop
      vertex   -4.906964e+00 3.929449e+01 0.000000e+00
      vertex   -4.906964e+00 3.929449e+01 2.500000e+00
      vertex   -4.832234e+00 3.942392e+01 0.000000e+00
    endloop
  endfacet
  facet normal -8.660262e-01 4.999986e-01 0.000000e+00
    outer loop
      vertex   -4.832234e+00 3.942392e+01 0.000000e+00
      vertex   -4.906964e+00 3.929449e+01 2.500000e+00
      vertex   -4.832234e+00 3.942392e+01 2.500000e+00
    endloop
  endfacet
  facet normal -9.308745e-01 3.653392e-01 0.000000e+00
    outer loop
      vertex   -4.832234e+00 3.942392e+01 0.000000e+00
      vertex   -4.832234e+00 3.942392e+01 2.500000e+00
      vertex   -4.777630e+00 3.956305e+01 0.000000e+00
    endloop
  endfacet
  facet normal -9.308745e-01 3.653392e-01 0.000000e+00
    outer loop
      vertex   -4.777630e+00 3.956305e+01 0.000000e+00
      vertex   -4.832234e+00 3.942392e+01 2.500000e+00
      vertex   -4.777630e+00 3.956305e+01 2.500000e+00
    endloop
  endfacet
  facet normal -9.749270e-01 2.225248e-01 0.000000e+00
    outer loop
      vertex   -4.777630e+00 3.956305e+01 0.000000e+00
      vertex   -4.777630e+00 3.956305e+01 2.500000e+00
      vertex   -4.744372e+00 3.970876e+01 0.000000e+00
    endloop
  endfacet
  facet normal -9.749270e-01 2.225248e-01 0.000000e+00
    outer loop
      vertex   -4.744372e+00 3.970876e+01 0.000000e+00
      vertex   -4.777630e+00 3.956305e+01 2.500000e+00
      vertex   -4.744372e+00 3.970876e+01 2.500000e+00
    endloop
  endfacet
  facet normal -9.972039e-01 7.472777e-02 0.000000e+00
    outer loop
      vertex   -4.744372e+00 3.970876e+01 0.000000e+00
      vertex   -4.744372e+00 3.970876e+01 2.500000e+00
      vertex   -4.733203e+00 3.985781e+01 0.000000e+00
    endloop
  endfacet
  facet normal -9.972039e-01 7.472777e-02 0.000000e+00
    outer loop
      vertex   -4.733203e+00 3.985781e+01 0.000000e+00
      vertex   -4.744372e+00 3.970876e+01 2.500000e+00
      vertex   -4.733203e+00 3.985781e+01 2.500000e+00
    endloop
  endfacet
  facet normal -9.972039e-01 -7.472777e-02 0.000000e+00
    outer loop
      vertex   -4.733203e+00 3.985781e+01 0.000000e+00
      vertex   -4.733203e+00 3.985781e+01 2.500000e+00
      vertex   -4.744372e+00 4.000685e+01 0.000000e+00
    endloop
  endfacet
  facet normal -9.972039e-01 -7.472777e-02 0.000000e+00
    outer loop
      vertex   -4.744372e+00 4.000685e+01 0.000000e+00
      vertex   -4.733203e+00 3.985781e+01 2.500000e+00
      vertex   -4.744372e+00 4.000685e+01 2.500000e+00
    endloop
  endfacet
  facet normal -9.749270e-01 -2.225248e-01 0.000000e+00
    outer loop
      vertex   -4.744372e+00 4.000685e+01 0.000000e+00
      vertex   -4.744372e+00 4.000685e+01 2.500000e+00
      vertex   -4.777630e+00 4.015256e+01 0.000000e+00
    endloop
  endfacet
  facet normal -9.749270e-01 -2.225248e-01 0.000000e+00
    outer loop
      vertex   -4.777630e+00 4.015256e+01 0.000000e+00
      vertex   -4.744372e+00 4.000685e+01 2.500000e+00
      vertex   -4.777630e+00 4.015256e+01 2.500000e+00
    endloop
  endfacet
  facet normal -9.308745e-01 -3.653392e-01 0.000000e+00
    outer loop
      vertex   -4.777630e+00 4.015256e+01 0.000000e+00
      vertex   -4.777630e+00 4.015256e+01 2.500000e+00
      vertex   -4.832234e+00 4.029169e+01 0.000000e+00
    endloop
  endfacet
  facet normal -9.308745e-01 -3.653392e-01 0.000000e+00
    outer loop
      vertex   -4.832234e+00 4.029169e+01 0.000000e+00
      vertex   -4.777630e+00 4.015256e+01 2.500000e+00
      vertex   -4.832234e+00 4.029169e+01 2.500000e+00
    endloop
  endfacet
  facet normal -8.660262e-01 -4.999986e-01 0.000000e+00
    outer loop
      vertex   -4.832234e+00 4.029169e+01 0.000000e+00
      vertex   -4.832234e+00 4.029169e+01 2.500000e+00
      vertex   -4.906964e+00 4.042113e+01 0.000000e+00
    endloop
  endfacet
  facet normal -8.660262e-01 -4.999986e-01 0.000000e+00
    outer loop
      vertex   -4.906964e+00 4.042113e+01 0.000000e+00
      vertex   -4.832234e+00 4.029169e+01 2.500000e+00
      vertex   -4.906964e+00 4.042113e+01 2.500000e+00
    endloop
  endfacet
  facet normal -7.818294e-01 -6.234925e-01 0.000000e+00
    outer loop
      vertex   -4.906964e+00 4.042113e+01 0.000000e+00
      vertex   -4.906964e+00 4.042113e+01 2.500000e+00
      vertex   -5.000151e+00 4.053798e+01 0.000000e+00
    endloop
  endfacet
  facet normal -7.818294e-01 -6.234925e-01 0.000000e+00
    outer loop
      vertex   -5.000151e+00 4.053798e+01 0.000000e+00
      vertex   -4.906964e+00 4.042113e+01 2.500000e+00
      vertex   -5.000151e+00 4.053798e+01 2.500000e+00
    endloop
  endfacet
  facet normal -6.801685e-01 -7.330558e-01 0.000000e+00
    outer loop
      vertex   -5.000151e+00 4.053798e+01 0.000000e+00
      vertex   -5.000151e+00 4.053798e+01 2.500000e+00
      vertex   -5.109713e+00 4.063964e+01 0.000000e+00
    endloop
  endfacet
  facet normal -6.801685e-01 -7.330558e-01 0.000000e+00
    outer loop
      vertex   -5.109713e+00 4.063964e+01 0.000000e+00
      vertex   -5.000151e+00 4.053798e+01 2.500000e+00
      vertex   -5.109713e+00 4.063964e+01 2.500000e+00
    endloop
  endfacet
  facet normal -5.633211e-01 -8.262381e-01 0.000000e+00
    outer loop
      vertex   -5.109713e+00 4.063964e+01 0.000000e+00
      vertex   -5.109713e+00 4.063964e+01 2.500000e+00
      vertex   -5.233203e+00 4.072383e+01 0.000000e+00
    endloop
  endfacet
  facet normal -5.633211e-01 -8.262381e-01 0.000000e+00
    outer loop
      vertex   -5.233203e+00 4.072383e+01 0.000000e+00
      vertex   -5.109713e+00 4.063964e+01 2.500000e+00
      vertex   -5.233203e+00 4.072383e+01 2.500000e+00
    endloop
  endfacet
  facet normal -4.338924e-01 -9.009647e-01 0.000000e+00
    outer loop
      vertex   -5.233203e+00 4.072383e+01 0.000000e+00
      vertex   -5.233203e+00 4.072383e+01 2.500000e+00
      vertex   -5.367862e+00 4.078868e+01 0.000000e+00
    endloop
  endfacet
  facet normal -4.338924e-01 -9.009647e-01 0.000000e+00
    outer loop
      vertex   -5.367862e+00 4.078868e+01 0.000000e+00
      vertex   -5.233203e+00 4.072383e+01 2.500000e+00
      vertex   -5.367862e+00 4.078868e+01 2.500000e+00
    endloop
  endfacet
  facet normal -2.947664e-01 -9.555693e-01 0.000000e+00
    outer loop
      vertex   -5.367862e+00 4.078868e+01 0.000000e+00
      vertex   -5.367862e+00 4.078868e+01 2.500000e+00
      vertex   -5.510682e+00 4.083274e+01 0.000000e+00
    endloop
  endfacet
  facet normal -2.947664e-01 -9.555693e-01 0.000000e+00
    outer loop
      vertex   -5.510682e+00 4.083274e+01 0.000000e+00
      vertex   -5.367862e+00 4.078868e+01 2.500000e+00
      vertex   -5.510682e+00 4.083274e+01 2.500000e+00
    endloop
  endfacet
  facet normal -1.490300e-01 -9.888327e-01 0.000000e+00
    outer loop
      vertex   -5.510682e+00 4.083274e+01 0.000000e+00
      vertex   -5.510682e+00 4.083274e+01 2.500000e+00
      vertex   -5.658473e+00 4.085501e+01 0.000000e+00
    endloop
  endfacet
  facet normal -1.490300e-01 -9.888327e-01 0.000000e+00
    outer loop
      vertex   -5.658473e+00 4.085501e+01 0.000000e+00
      vertex   -5.510682e+00 4.083274e+01 2.500000e+00
      vertex   -5.658473e+00 4.085501e+01 2.500000e+00
    endloop
  endfacet
  facet normal 0.000000e+00 -1.000000e+00 0.000000e+00
    outer loop
      vertex   -5.658473e+00 4.085501e+01 0.000000e+00
      vertex   -5.658473e+00 4.085501e+01 2.500000e+00
      vertex   -5.807933e+00 4.085501e+01 0.000000e+00
    endloop
  endfacet
  facet normal 0.000000e+00 -1.000000e+00 0.000000e+00
    outer loop
      vertex   -5.807933e+00 4.085501e+01 0.000000e+00
      vertex   -5.658473e+00 4.085501e+01 2.500000e+00
      vertex   -5.807933e+00 4.085501e+01 2.500000e+00
    endloop
  endfacet
  facet normal 1.490300e-01 -9.888327e-01 0.000000e+00
    outer loop
      vertex   -5.807933e+00 4.085501e+01 0.000000e+00
      vertex   -5.807933e+00 4.085501e+01 2.500000e+00
      vertex   -5.955724e+00 4.083274e+01 0.000000e+00
    endloop
  endfacet
  facet normal 1.490300e-01 -9.888327e-01 0.000000e+00
    outer loop
      vertex   -5.955724e+00 4.083274e+01 0.000000e+00
      vertex   -5.807933e+00 4.085501e+01 2.500000e+00
      vertex   -5.955724e+00 4.083274e+01 2.500000e+00
    endloop
  endfacet
  facet normal 2.947664e-01 -9.555693e-01 0.000000e+00
    outer loop
      vertex   -5.955724e+00 4.083274e+01 0.000000e+00
      vertex   -5.955724e+00 4.083274e+01 2.500000e+00
      vertex   -6.098544e+00 4.078868e+01 0.000000e+00
    endloop
  endfacet
  facet normal 2.947664e-01 -9.555693e-01 0.000000e+00
    outer loop
      vertex   -6.098544e+00 4.078868e+01 0.000000e+00
      vertex   -5.955724e+00 4.083274e+01 2.500000e+00
      vertex   -6.098544e+00 4.078868e+01 2.500000e+00
    endloop
  endfacet
  facet normal 4.338911e-01 -9.009653e-01 0.000000e+00
    outer loop
      vertex   -6.098544e+00 4.078868e+01 0.000000e+00
      vertex   -6.098544e+00 4.078868e+01 2.500000e+00
      vertex   -6.233203e+00 4.072383e+01 0.000000e+00
    endloop
  endfacet
  facet normal 4.338924e-01 -9.009647e-01 -8.275840e-08
    outer loop
      vertex   -6.233203e+00 4.072383e+01 0.000000e+00
      vertex   -6.098544e+00 4.078868e+01 2.500000e+00
      vertex   -6.233202e+00 4.072383e+01 2.500000e+00
    endloop
  endfacet
  facet normal 5.633225e-01 -8.262371e-01 -1.074453e-07
    outer loop
      vertex   -6.233203e+00 4.072383e+01 0.000000e+00
      vertex   -6.233202e+00 4.072383e+01 2.500000e+00
      vertex   -6.356692e+00 4.063964e+01 0.000000e+00
    endloop
  endfacet
  facet normal 5.633211e-01 -8.262381e-01 0.000000e+00
    outer loop
      vertex   -6.356692e+00 4.063964e+01 0.000000e+00
      vertex   -6.233202e+00 4.072383e+01 2.500000e+00
      vertex   -6.356692e+00 4.063964e+01 2.500000e+00
    endloop
  endfacet
  facet normal 6.801685e-01 -7.330558e-01 0.000000e+00
    outer loop
      vertex   -6.356692e+00 4.063964e+01 0.000000e+00
      vertex   -6.356692e+00 4.063964e+01 2.500000e+00
      vertex   -6.466255e+00 4.053798e+01 0.000000e+00
    endloop
  endfacet
  facet normal 6.801685e-01 -7.330558e-01 0.000000e+00
    outer loop
      vertex   -6.466255e+00 4.053798e+01 0.000000e+00
      vertex   -6.356692e+00 4.063964e+01 2.500000e+00
      vertex   -6.466255e+00 4.053798e+01 2.500000e+00
    endloop
  endfacet
  facet normal 7.818294e-01 -6.234925e-01 0.000000e+00
    outer loop
      vertex   -6.466255e+00 4.053798e+01 0.000000e+00
      vertex   -6.466255e+00 4.053798e+01 2.500000e+00
      vertex   -6.559442e+00 4.042113e+01 0.000000e+00
    endloop
  endfacet
  facet normal 7.818294e-01 -6.234925e-01 0.000000e+00
    outer loop
      vertex   -6.559442e+00 4.042113e+01 0.000000e+00
      vertex   -6.466255e+00 4.053798e+01 2.500000e+00
      vertex   -6.559442e+00 4.042113e+01 2.500000e+00
    endloop
  endfacet
  facet normal 8.660262e-01 -4.999986e-01 0.000000e+00
    outer loop
      vertex   -6.559442e+00 4.042113e+01 0.000000e+00
      vertex   -6.559442e+00 4.042113e+01 2.500000e+00
      vertex   -6.634171e+00 4.029169e+01 0.000000e+00
    endloop
  endfacet
  facet normal 8.660262e-01 -4.999986e-01 0.000000e+00
    outer loop
      vertex   -6.634171e+00 4.029169e+01 0.000000e+00
      vertex   -6.559442e+00 4.042113e+01 2.500000e+00
      vertex   -6.634171e+00 4.029169e+01 2.500000e+00
    endloop
  endfacet
  facet normal 9.308745e-01 -3.653392e-01 0.000000e+00
    outer loop
      vertex   -6.634171e+00 4.029169e+01 0.000000e+00
      vertex   -6.634171e+00 4.029169e+01 2.500000e+00
      vertex   -6.688776e+00 4.015256e+01 0.000000e+00
    endloop
  endfacet
  facet normal 9.308745e-01 -3.653392e-01 0.000000e+00
    outer loop
      vertex   -6.688776e+00 4.015256e+01 0.000000e+00
      vertex   -6.634171e+00 4.029169e+01 2.500000e+00
      vertex   -6.688776e+00 4.015256e+01 2.500000e+00
    endloop
  endfacet
  facet normal 9.749270e-01 -2.225248e-01 0.000000e+00
    outer loop
      vertex   -6.688776e+00 4.015256e+01 0.000000e+00
      vertex   -6.688776e+00 4.015256e+01 2.500000e+00
      vertex   -6.722034e+00 4.000685e+01 0.000000e+00
    endloop
  endfacet
  facet normal 9.749270e-01 -2.225248e-01 0.000000e+00
    outer loop
      vertex   -6.722034e+00 4.000685e+01 0.000000e+00
      vertex   -6.688776e+00 4.015256e+01 2.500000e+00
      vertex   -6.722034e+00 4.000685e+01 2.500000e+00
    endloop
  endfacet
  facet normal 0.000000e+00 0.000000e+00 1.000000e+00
    outer loop
      vertex   -6.722034e+00 3.970876e+01 5.000000e+00
      vertex   -6.733203e+00 3.985781e+01 5.000000e+00
      vertex   -1.017936e+01 4.997433e+01 5.000000e+00
    endloop
  endfacet
  facet normal 0.000000e+00 0.000000e+00 1.000000e+00
    outer loop
      vertex   -1.017936e+01 4.997433e+01 5.000000e+00
      vertex   -6.733203e+00 3.985781e+01 5.000000e+00
      vertex   -6.722034e+00 4.000685e+01 5.000000e+00
    endloop
  endfacet
  facet normal 0.000000e+00 0.000000e+00 1.000000e+00
    outer loop
      vertex   -1.017936e+01 4.997433e+01 5.000000e+00
      vertex   -6.722034e+00 4.000685e+01 5.000000e+00
      vertex   -6.688776e+00 4.015256e+01 5.000000e+00
    endloop
  endfacet
  facet normal 0.000000e+00 -0.000000e+00 1.000000e+00
    outer loop
      vertex   -6.688776e+00 4.015256e+01 5.000000e+00
      vertex   -6.634171e+00 4.029169e+01 5.000000e+00
      vertex   -1.017936e+01 4.997433e+01 5.000000e+00
    endloop
  endfacet
  facet normal 0.000000e+00 0.000000e+00 1.000000e+00
    outer loop
      vertex   -1.017936e+01 4.997433e+01 5.000000e+00
      vertex   -6.634171e+00 4.029169e+01 5.000000e+00
      vertex   -6.559442e+00 4.042113e+01 5.000000e+00
    endloop
  endfacet
  facet normal 0.000000e+00 0.000000e+00 1.000000e+00
    outer loop
      vertex   -1.017936e+01 4.997433e+01 5.000000e+00
      vertex   -6.559442e+00 4.042113e+01 5.000000e+00
      vertex   -6.466255e+00 4.053798e+01 5.000000e+00
    endloop
  endfacet
  facet normal 0.000000e+00 -0.000000e+00 1.000000e+00
    outer loop
      vertex   -6.466255e+00 4.053798e+01 5.000000e+00
      vertex   -6.356692e+00 4.063964e+01 5.000000e+00
      vertex   -1.017936e+01 4.997433e+01 5.000000e+00
    endloop
  endfacet
  facet normal 0.000000e+00 0.000000e+00 1.000000e+00
    outer loop
      vertex   -1.017936e+01 4.997433e+01 5.000000e+00
      vertex   -6.356692e+00 4.063964e+01 5.000000e+00
      vertex   -6.233203e+00 4.072383e+01 5.000000e+00
    endloop
  endfacet
  facet normal 0.000000e+00 0.000000e+00 1.000000e+00
    outer loop
      vertex   -1.017936e+01 4.997433e+01 5.000000e+00
      vertex   -6.233203e+00 4.072383e+01 5.000000e+00
      vertex   -6.098544e+00 4.078868e+01 5.000000e+00
    endloop
  endfacet
  facet normal 0.000000e+00 -0.000000e+00 1.000000e+00
    outer loop
      vertex   -6.098544e+00 4.078868e+01 5.000000e+00
      vertex   -5.955724e+00 4.083274e+01 5.000000e+00
      vertex   -1.017936e+01 4.997433e+01 5.000000e+00
    endloop
  endfacet
  facet normal 0.000000e+00 0.000000e+00 1.000000e+00
    outer loop
      vertex   -1.017936e+01 4.997433e+01 5.000000e+00
      vertex   -5.955724e+00 4.083274e+01 5.000000e+00
      vertex   -5.807933e+00 4.085501e+01 5.000000e+00
    endloop
  endfacet
  facet normal 0.000000e+00 0.000000e+00 1.000000e+00
    outer loop
      vertex   -1.017936e+01 4.997433e+01 5.000000e+00
      vertex   -5.807933e+00 4.085501e+01 5.000000e+00
      vertex   -5.658473e+00 4.085501e+01 5.000000e+00
    endloop
  endfacet
  facet normal -0.000000e+00 -0.000000e+00 1.000000e+00
    outer loop
      vertex   -5.658473e+00 4.085501e+01 5.000000e+00
      vertex   -5.510682e+00 4.083274e+01 5.000000e+00
      vertex   -1.017936e+01 4.997433e+01 5.000000e+00
    endloop
  endfacet
  facet normal -0.000000e+00 0.000000e+00 1.000000e+00
    outer loop
      vertex   -1.017936e+01 4.997433e+01 5.000000e+00
      vertex   -5.510682e+00 4.083274e+01 5.000000e+00
      vertex   -1.793617e-01 4.997433e+01 5.000000e+00
    endloop
  endfacet
  facet normal 0.000000e+00 0.000000e+00 1.000000e+00
    outer loop
      vertex   -1.017936e+01 4.997433e+01 5.000000e+00
      vertex   -1.793617e-01 4.997433e+01 5.000000e+00
      vertex   -1.017936e+01 9.997433e+01 5.000000e+00
    endloop
  endfacet
  facet normal -0.000000e+00 0.000000e+00 1.000000e+00
    outer loop
      vertex   -1.017936e+01 9.997433e+01 5.000000e+00
      vertex   -1.793617e-01 4.997433e+01 5.000000e+00
      vertex   -1.793617e-01 9.997433e+01 5.000000e+00
    endloop
  endfacet
  facet normal -0.000000e+00 0.000000e+00 1.000000e+00
    outer loop
      vertex   -5.510682e+00 4.083274e+01 5.000000e+00
      vertex   -5.367862e+00 4.078868e+01 5.000000e+00
      vertex   -1.793617e-01 4.997433e+01 5.000000e+00
    endloop
  endfacet
  facet normal 0.000000e+00 0.000000e+00 1.000000e+00
    outer loop
      vertex   -1.793617e-01 4.997433e+01 5.000000e+00
      vertex   -5.367862e+00 4.078868e+01 5.000000e+00
      vertex   -5.233203e+00 4.072383e+01 5.000000e+00
    endloop
  endfacet
  facet normal 0.000000e+00 0.000000e+00 1.000000e+00
    outer loop
      vertex   -1.793617e-01 4.997433e+01 5.000000e+00
      vertex   -5.233203e+00 4.072383e+01 5.000000e+00
      vertex   -5.109713e+00 4.063964e+01 5.000000e+00
    endloop
  endfacet
  facet normal -0.000000e+00 0.000000e+00 1.000000e+00
    outer loop
      vertex   -5.109713e+00 4.063964e+01 5.000000e+00
      vertex   -5.000151e+00 4.053798e+01 5.000000e+00
      vertex   -1.793617e-01 4.997433e+01 5.000000e+00
    endloop
  endfacet
  facet normal 0.000000e+00 0.000000e+00 1.000000e+00
    outer loop
      vertex   -1.793617e-01 4.997433e+01 5.000000e+00
      vertex   -5.000151e+00 4.053798e+01 5.000000e+00
      vertex   -4.906964e+00 4.042113e+01 5.000000e+00
    endloop
  endfacet
  facet normal 0.000000e+00 0.000000e+00 1.000000e+00
    outer loop
      vertex   -1.793617e-01 4.997433e+01 5.000000e+00
      vertex   -4.906964e+00 4.042113e+01 5.000000e+00
      vertex   -4.832234e+00 4.029169e+01 5.000000e+00
    endloop
  endfacet
  facet normal -0.000000e+00 0.000000e+00 1.000000e+00
    outer loop
      vertex   -4.832234e+00 4.029169e+01 5.000000e+00
      vertex   -4.777630e+00 4.015256e+01 5.000000e+00
      vertex   -1.793617e-01 4.997433e+01 5.000000e+00
    endloop
  endfacet
  facet normal 0.000000e+00 0.000000e+00 1.000000e+00
    outer loop
      vertex   -1.793617e-01 4.997433e+01 5.000000e+00
      vertex   -4.777630e+00 4.015256e+01 5.000000e+00
      vertex   -4.744372e+00 4.000685e+01 5.000000e+00
    endloop
  endfacet
  facet normal 0.000000e+00 0.000000e+00 1.000000e+00
    outer loop
      vertex   -1.793617e-01 4.997433e+01 5.000000e+00
      vertex   -4.744372e+00 4.000685e+01 5.000000e+00
      vertex   -4.733203e+00 3.985781e+01 5.000000e+00
    endloop
  endfacet
  facet normal -0.000000e+00 0.000000e+00 1.000000e+00
    outer loop
      vertex   -4.733203e+00 3.985781e+01 5.000000e+00
      vertex   -4.744372e+00 3.970876e+01 5.000000e+00
      vertex   -1.793617e-01 4.997433e+01 5.000000e+00
    endloop
  endfacet
  facet normal 0.000000e+00 0.000000e+00 1.000000e+00
    outer loop
      vertex   -1.793617e-01 4.997433e+01 5.000000e+00
      vertex   -4.744372e+00 3.970876e+01 5.000000e+00
      vertex   -1.793617e-01 -2.566654e-02 5.000000e+00
    endloop
  endfacet
  facet normal 0.000000e+00 0.000000e+00 1.000000e+00
    outer loop
      vertex   -1.793617e-01 -2.566654e-02 5.000000e+00
      vertex   -4.744372e+00 3.970876e+01 5.000000e+00
      vertex   -4.777630e+00 3.956305e+01 5.000000e+00
    endloop
  endfacet
  facet normal 0.000000e+00 0.000000e+00 1.000000e+00
    outer loop
      vertex   -1.793617e-01 -2.566654e-02 5.000000e+00
      vertex   -4.777630e+00 3.956305e+01 5.000000e+00
      vertex   -4.832234e+00 3.942392e+01 5.000000e+00
    endloop
  endfacet
  facet normal 0.000000e+00 0.000000e+00 1.000000e+00
    outer loop
      vertex   -4.832234e+00 3.942392e+01 5.000000e+00
      vertex   -4.906964e+00 3.929449e+01 5.000000e+00
      vertex   -1.793617e-01 -2.566654e-02 5.000000e+00
    endloop
  endfacet
  facet normal 0.000000e+00 0.000000e+00 1.000000e+00
    outer loop
      vertex   -1.793617e-01 -2.566654e-02 5.000000e+00
      vertex   -4.906964e+00 3.929449e+01 5.000000e+00
      vertex   -5.000151e+00 3.917764e+01 5.000000e+00
    endloop
  endfacet
  facet normal 0.000000e+00 0.000000e+00 1.000000e+00
    outer loop
      vertex   -1.793617e-01 -2.566654e-02 5.000000e+00
      vertex   -5.000151e+00 3.917764e+01 5.000000e+00
      vertex   -5.109713e+00 3.907598e+01 5.000000e+00
    endloop
  endfacet
  facet normal 0.000000e+00 0.000000e+00 1.000000e+00
    outer loop
      vertex   -5.109713e+00 3.907598e+01 5.000000e+00
      vertex   -5.233203e+00 3.899178e+01 5.000000e+00
      vertex   -1.793617e-01 -2.566654e-02 5.000000e+00
    endloop
  endfacet
  facet normal 0.000000e+00 0.000000e+00 1.000000e+00
    outer loop
      vertex   -1.793617e-01 -2.566654e-02 5.000000e+00
      vertex   -5.233203e+00 3.899178e+01 5.000000e+00
      vertex   -5.367862e+00 3.892693e+01 5.000000e+00
    endloop
  endfacet
  facet normal 0.000000e+00 0.000000e+00 1.000000e+00
    outer loop
      vertex   -1.793617e-01 -2.566654e-02 5.000000e+00
      vertex   -5.367862e+00 3.892693e+01 5.000000e+00
      vertex   -5.510682e+00 3.888288e+01 5.000000e+00
    endloop
  endfacet
  facet normal 0.000000e+00 0.000000e+00 1.000000e+00
    outer loop
      vertex   -1.793617e-01 -2.566654e-02 5.000000e+00
      vertex   -5.510682e+00 3.888288e+01 5.000000e+00
      vertex   -1.017936e+01 -2.566654e-02 5.000000e+00
    endloop
  endfacet
  facet normal 0.000000e+00 0.000000e+00 1.000000e+00
    outer loop
      vertex   -1.017936e+01 -2.566654e-02 5.000000e+00
      vertex   -5.510682e+00 3.888288e+01 5.000000e+00
      vertex   -5.658473e+00 3.886060e+01 5.000000e+00
    endloop
  endfacet
  facet normal 0.000000e+00 0.000000e+00 1.000000e+00
    outer loop
      vertex   -1.017936e+01 -2.566654e-02 5.000000e+00
      vertex   -5.658473e+00 3.886060e+01 5.000000e+00
      vertex   -5.807933e+00 3.886060e+01 5.000000e+00
    endloop
  endfacet
  facet normal 0.000000e+00 0.000000e+00 1.000000e+00
    outer loop
      vertex   -5.807933e+00 3.886060e+01 5.000000e+00
      vertex   -5.955724e+00 3.888288e+01 5.000000e+00
      vertex   -1.017936e+01 -2.566654e-02 5.000000e+00
    endloop
  endfacet
  facet normal 0.000000e+00 0.000000e+00 1.000000e+00
    outer loop
      vertex   -1.017936e+01 -2.566654e-02 5.000000e+00
      vertex   -5.955724e+00 3.888288e+01 5.000000e+00
      vertex   -6.098544e+00 3.892693e+01 5.000000e+00
    endloop
  endfacet
  facet normal 0.000000e+00 0.000000e+00 1.000000e+00
    outer loop
      vertex   -1.017936e+01 -2.566654e-02 5.000000e+00
      vertex   -6.098544e+00 3.892693e+01 5.000000e+00
      vertex   -6.233203e+00 3.899178e+01 5.000000e+00
    endloop
  endfacet
  facet normal 0.000000e+00 0.000000e+00 1.000000e+00
    outer loop
      vertex   -6.233203e+00 3.899178e+01 5.000000e+00
      vertex   -6.356692e+00 3.907598e+01 5.000000e+00
      vertex   -1.017936e+01 -2.566654e-02 5.000000e+00
    endloop
  endfacet
  facet normal 0.000000e+00 0.000000e+00 1.000000e+00
    outer loop
      vertex   -1.017936e+01 -2.566654e-02 5.000000e+00
      vertex   -6.356692e+00 3.907598e+01 5.000000e+00
      vertex   -6.466255e+00 3.917764e+01 5.000000e+00
    endloop
  endfacet
  facet normal 0.000000e+00 0.000000e+00 1.000000e+00
    outer loop
      vertex   -1.017936e+01 -2.566654e-02 5.000000e+00
      vertex   -6.466255e+00 3.917764e+01 5.000000e+00
      vertex   -6.559442e+00 3.929449e+01 5.000000e+00
    endloop
  endfacet
  facet normal 0.000000e+00 0.000000e+00 1.000000e+00
    outer loop
      vertex   -6.559442e+00 3.929449e+01 5.000000e+00
      vertex   -6.634171e+00 3.942392e+01 5.000000e+00
      vertex   -1.017936e+01 -2.566654e-02 5.000000e+00
    endloop
  endfacet
  facet normal 0.000000e+00 0.000000e+00 1.000000e+00
    outer loop
      vertex   -1.017936e+01 -2.566654e-02 5.000000e+00
      vertex   -6.634171e+00 3.942392e+01 5.000000e+00
      vertex   -6.688776e+00 3.956305e+01 5.000000e+00
    endloop
  endfacet
  facet normal 0.000000e+00 0.000000e+00 1.000000e+00
    outer loop
      vertex   -1.017936e+01 -2.566654e-02 5.000000e+00
      vertex   -6.688776e+00 3.956305e+01 5.000000e+00
      vertex   -6.722034e+00 3.970876e+01 5.000000e+00
    endloop
  endfacet
  facet normal 0.000000e+00 0.000000e+00 1.000000e+00
    outer loop
      vertex   -1.017936e+01 -2.566654e-02 5.000000e+00
      vertex   -6.722034e+00 3.970876e+01 5.000000e+00
      vertex   -1.017936e+01 4.997433e+01 5.000000e+00
    endloop
  endfacet
  facet normal -0.000000e+00 0.000000e+00 -1.000000e+00
    outer loop
      vertex   -6.722034e+00 4.000685e+01 0.000000e+00
      vertex   -6.733203e+00 3.985781e+01 0.000000e+00
      vertex   -1.017936e+01 4.997433e+01 0.000000e+00
    endloop
  endfacet
  facet normal 0.000000e+00 0.000000e+00 -1.000000e+00
    outer loop
      vertex   -1.017936e+01 4.997433e+01 0.000000e+00
      vertex   -6.733203e+00 3.985781e+01 0.000000e+00
      vertex   -6.722034e+00 3.970876e+01 0.000000e+00
    endloop
  endfacet
  facet normal 0.000000e+00 0.000000e+00 -1.000000e+00
    outer loop
      vertex   -1.017936e+01 4.997433e+01 0.000000e+00
      vertex   -6.722034e+00 3.970876e+01 0.000000e+00
      vertex   -1.017936e+01 -2.566654e-02 0.000000e+00
    endloop
  endfacet
  facet normal 0.000000e+00 0.000000e+00 -1.000000e+00
    outer loop
      vertex   -1.017936e+01 -2.566654e-02 0.000000e+00
      vertex   -6.722034e+00 3.970876e+01 0.000000e+00
      vertex   -6.688776e+00 3.956305e+01 0.000000e+00
    endloop
  endfacet
  facet normal 0.000000e+00 0.000000e+00 -1.000000e+00
    outer loop
      vertex   -1.017936e+01 -2.566654e-02 0.000000e+00
      vertex   -6.688776e+00 3.956305e+01 0.000000e+00
      vertex   -6.634171e+00 3.942392e+01 0.000000e+00
    endloop
  endfacet
  facet normal 0.000000e+00 -0.000000e+00 -1.000000e+00
    outer loop
      vertex   -6.634171e+00 3.942392e+01 0.000000e+00
      vertex   -6.559442e+00 3.929449e+01 0.000000e+00
      vertex   -1.017936e+01 -2.566654e-02 0.000000e+00
    endloop
  endfacet
  facet normal 0.000000e+00 0.000000e+00 -1.000000e+00
    outer loop
      vertex   -1.017936e+01 -2.566654e-02 0.000000e+00
      vertex   -6.559442e+00 3.929449e+01 0.000000e+00
      vertex   -6.466255e+00 3.917764e+01 0.000000e+00
    endloop
  endfacet
  facet normal 0.000000e+00 0.000000e+00 -1.000000e+00
    outer loop
      vertex   -1.017936e+01 -2.566654e-02 0.000000e+00
      vertex   -6.466255e+00 3.917764e+01 0.000000e+00
      vertex   -6.356692e+00 3.907598e+01 0.000000e+00
    endloop
  endfacet
  facet normal 0.000000e+00 -0.000000e+00 -1.000000e+00
    outer loop
      vertex   -6.356692e+00 3.907598e+01 0.000000e+00
      vertex   -6.233203e+00 3.899178e+01 0.000000e+00
      vertex   -1.017936e+01 -2.566654e-02 0.000000e+00
    endloop
  endfacet
  facet normal 0.000000e+00 0.000000e+00 -1.000000e+00
    outer loop
      vertex   -1.017936e+01 -2.566654e-02 0.000000e+00
      vertex   -6.233203e+00 3.899178e+01 0.000000e+00
      vertex   -6.098544e+00 3.892693e+01 0.000000e+00
    endloop
  endfacet
  facet normal 0.000000e+00 0.000000e+00 -1.000000e+00
    outer loop
      vertex   -1.017936e+01 -2.566654e-02 0.000000e+00
      vertex   -6.098544e+00 3.892693e+01 0.000000e+00
      vertex   -5.955724e+00 3.888288e+01 0.000000e+00
    endloop
  endfacet
  facet normal 0.000000e+00 -0.000000e+00 -1.000000e+00
    outer loop
      vertex   -5.955724e+00 3.888288e+01 0.000000e+00
      vertex   -5.807933e+00 3.886060e+01 0.000000e+00
      vertex   -1.017936e+01 -2.566654e-02 0.000000e+00
    endloop
  endfacet
  facet normal 0.000000e+00 0.000000e+00 -1.000000e+00
    outer loop
      vertex   -1.017936e+01 -2.566654e-02 0.000000e+00
      vertex   -5.807933e+00 3.886060e+01 0.000000e+00
      vertex   -5.658473e+00 3.886060e+01 0.000000e+00
    endloop
  endfacet
  facet normal 0.000000e+00 0.000000e+00 -1.000000e+00
    outer loop
      vertex   -1.017936e+01 -2.566654e-02 0.000000e+00
      vertex   -5.658473e+00 3.886060e+01 0.000000e+00
      vertex   -5.510682e+00 3.888288e+01 0.000000e+00
    endloop
  endfacet
  facet normal 0.000000e+00 0.000000e+00 -1.000000e+00
    outer loop
      vertex   -1.017936e+01 -2.566654e-02 0.000000e+00
      vertex   -5.510682e+00 3.888288e+01 0.000000e+00
      vertex   -1.793617e-01 -2.566654e-02 0.000000e+00
    endloop
  endfacet
  facet normal 0.000000e+00 0.000000e+00 -1.000000e+00
    outer loop
      vertex   -1.793617e-01 -2.566654e-02 0.000000e+00
      vertex   -5.510682e+00 3.888288e+01 0.000000e+00
      vertex   -5.367862e+00 3.892693e+01 0.000000e+00
    endloop
  endfacet
  facet normal 0.000000e+00 0.000000e+00 -1.000000e+00
    outer loop
      vertex   -1.793617e-01 -2.566654e-02 0.000000e+00
      vertex   -5.367862e+00 3.892693e+01 0.000000e+00
      vertex   -5.233203e+00 3.899178e+01 0.000000e+00
    endloop
  endfacet
  facet normal 0.000000e+00 0.000000e+00 -1.000000e+00
    outer loop
      vertex   -5.233203e+00 3.899178e+01 0.000000e+00
      vertex   -5.109713e+00 3.907598e+01 0.000000e+00
      vertex   -1.793617e-01 -2.566654e-02 0.000000e+00
    endloop
  endfacet
  facet normal 0.000000e+00 0.000000e+00 -1.000000e+00
    outer loop
      vertex   -1.793617e-01 -2.566654e-02 0.000000e+00
      vertex   -5.109713e+00 3.907598e+01 0.000000e+00
      vertex   -5.000151e+00 3.917764e+01 0.000000e+00
    endloop
  endfacet
  facet normal 0.000000e+00 0.000000e+00 -1.000000e+00
    outer loop
      vertex   -1.793617e-01 -2.566654e-02 0.000000e+00
      vertex   -5.000151e+00 3.917764e+01 0.000000e+00
      vertex   -4.906964e+00 3.929449e+01 0.000000e+00
    endloop
  endfacet
  facet normal 0.000000e+00 0.000000e+00 -1.000000e+00
    outer loop
      vertex   -4.906964e+00 3.929449e+01 0.000000e+00
      vertex   -4.832234e+00 3.942392e+01 0.000000e+00
      vertex   -1.793617e-01 -2.566654e-02 0.000000e+00
    endloop
  endfacet
  facet normal 0.000000e+00 0.000000e+00 -1.000000e+00
    outer loop
      vertex   -1.793617e-01 -2.566654e-02 0.000000e+00
      vertex   -4.832234e+00 3.942392e+01 0.000000e+00
      vertex   -4.777630e+00 3.956305e+01 0.000000e+00
    endloop
  endfacet
  facet normal 0.000000e+00 0.000000e+00 -1.000000e+00
    outer loop
      vertex   -1.793617e-01 -2.566654e-02 0.000000e+00
      vertex   -4.777630e+00 3.956305e+01 0.000000e+00
      vertex   -4.744372e+00 3.970876e+01 0.000000e+00
    endloop
  endfacet
  facet normal 0.000000e+00 0.000000e+00 -1.000000e+00
    outer loop
      vertex   -1.793617e-01 -2.566654e-02 0.000000e+00
      vertex   -4.744372e+00 3.970876e+01 0.000000e+00
      vertex   -1.793617e-01 4.997433e+01 0.000000e+00
    endloop
  endfacet
  facet normal 0.000000e+00 0.000000e+00 -1.000000e+00
    outer loop
      vertex   -1.793617e-01 4.997433e+01 0.000000e+00
      vertex   -4.744372e+00 3.970876e+01 0.000000e+00
      vertex   -4.733203e+00 3.985781e+01 0.000000e+00
    endloop
  endfacet
  facet normal 0.000000e+00 0.000000e+00 -1.000000e+00
    outer loop
      vertex   -1.793617e-01 4.997433e+01 0.000000e+00
      vertex   -4.733203e+00 3.985781e+01 0.000000e+00
      vertex   -4.744372e+00 4.000685e+01 0.000000e+00
    endloop
  endfacet
  facet normal 0.000000e+00 0.000000e+00 -1.000000e+00
    outer loop
      vertex   -4.744372e+00 4.000685e+01 0.000000e+00
      vertex   -4.777630e+00 4.015256e+01 0.000000e+00
      vertex   -1.793617e-01 4.997433e+01 0.000000e+00
    endloop
  endfacet
  facet normal 0.000000e+00 0.000000e+00 -1.000000e+00
    outer loop
      vertex   -1.793617e-01 4.997433e+01 0.000000e+00
      vertex   -4.777630e+00 4.015256e+01 0.000000e+00
      vertex   -4.832234e+00 4.029169e+01 0.000000e+00
    endloop
  endfacet
  facet normal 0.000000e+00 0.000000e+00 -1.000000e+00
    outer loop
      vertex   -1.793617e-01 4.997433e+01 0.000000e+00
      vertex   -4.832234e+00 4.029169e+01 0.000000e+00
      vertex   -4.906964e+00 4.042113e+01 0.000000e+00
    endloop
  endfacet
  facet normal 0.000000e+00 0.000000e+00 -1.000000e+00
    outer loop
      vertex   -4.906964e+00 4.042113e+01 0.000000e+00
      vertex   -5.000151e+00 4.053798e+01 0.000000e+00
      vertex   -1.793617e-01 4.997433e+01 0.000000e+00
    endloop
  endfacet
  facet normal 0.000000e+00 0.000000e+00 -1.000000e+00
    outer loop
      vertex   -1.793617e-01 4.997433e+01 0.000000e+00
      vertex   -5.000151e+00 4.053798e+01 0.000000e+00
      vertex   -5.109713e+00 4.063964e+01 0.000000e+00
    endloop
  endfacet
  facet normal 0.000000e+00 0.000000e+00 -1.000000e+00
    outer loop
      vertex   -1.793617e-01 4.997433e+01 0.000000e+00
      vertex   -5.109713e+00 4.063964e+01 0.000000e+00
      vertex   -5.233203e+00 4.072383e+01 0.000000e+00
    endloop
  endfacet
  facet normal 0.000000e+00 0.000000e+00 -1.000000e+00
    outer loop
      vertex   -5.233203e+00 4.072383e+01 0.000000e+00
      vertex   -5.367862e+00 4.078868e+01 0.000000e+00
      vertex   -1.793617e-01 4.997433e+01 0.000000e+00
    endloop
  endfacet
  facet normal 0.000000e+00 0.000000e+00 -1.000000e+00
    outer loop
      vertex   -1.793617e-01 4.997433e+01 0.000000e+00
      vertex   -5.367862e+00 4.078868e+01 0.000000e+00
      vertex   -5.510682e+00 4.083274e+01 0.000000e+00
    endloop
  endfacet
  facet normal -0.000000e+00 0.000000e+00 -1.000000e+00
    outer loop
      vertex   -1.793617e-01 4.997433e+01 0.000000e+00
      vertex   -5.510682e+00 4.083274e+01 0.000000e+00
      vertex   -1.017936e+01 4.997433e+01 0.000000e+00
    endloop
  endfacet
  facet normal 0.000000e+00 0.000000e+00 -1.000000e+00
    outer loop
      vertex   -1.017936e+01 4.997433e+01 0.000000e+00
      vertex   -5.510682e+00 4.083274e+01 0.000000e+00
      vertex   -5.658473e+00 4.085501e+01 0.000000e+00
    endloop
  endfacet
  facet normal 0.000000e+00 0.000000e+00 -1.000000e+00
    outer loop
      vertex   -1.017936e+01 4.997433e+01 0.000000e+00
      vertex   -5.658473e+00 4.085501e+01 0.000000e+00
      vertex   -5.807933e+00 4.085501e+01 0.000000e+00
    endloop
  endfacet
  facet normal -0.000000e+00 0.000000e+00 -1.000000e+00
    outer loop
      vertex   -5.807933e+00 4.085501e+01 0.000000e+00
      vertex   -5.955724e+00 4.083274e+01 0.000000e+00
      vertex   -1.017936e+01 4.997433e+01 0.000000e+00
    endloop
  endfacet
  facet normal 0.000000e+00 0.000000e+00 -1.000000e+00
    outer loop
      vertex   -1.017936e+01 4.997433e+01 0.000000e+00
      vertex   -5.955724e+00 4.083274e+01 0.000000e+00
      vertex   -6.098544e+00 4.078868e+01 0.000000e+00
    endloop
  endfacet
  facet normal 0.000000e+00 0.000000e+00 -1.000000e+00
    outer loop
      vertex   -1.017936e+01 4.997433e+01 0.000000e+00
      vertex   -6.098544e+00 4.078868e+01 0.000000e+00
      vertex   -6.233203e+00 4.072383e+01 0.000000e+00
    endloop
  endfacet
  facet normal -0.000000e+00 0.000000e+00 -1.000000e+00
    outer loop
      vertex   -6.233203e+00 4.072383e+01 0.000000e+00
      vertex   -6.356692e+00 4.063964e+01 0.000000e+00
      vertex   -1.017936e+01 4.997433e+01 0.000000e+00
    endloop
  endfacet
  facet normal 0.000000e+00 0.000000e+00 -1.000000e+00
    outer loop
      vertex   -1.017936e+01 4.997433e+01 0.000000e+00
      vertex   -6.356692e+00 4.063964e+01 0.000000e+00
      vertex   -6.466255e+00 4.053798e+01 0.000000e+00
    endloop
  endfacet
  facet normal 0.000000e+00 0.000000e+00 -1.000000e+00
    outer loop
      vertex   -1.017936e+01 4.997433e+01 0.000000e+00
      vertex   -6.466255e+00 4.053798e+01 0.000000e+00
      vertex   -6.559442e+00 4.042113e+01 0.000000e+00
    endloop
  endfacet
  facet normal -0.000000e+00 0.000000e+00 -1.000000e+00
    outer loop
      vertex   -6.559442e+00 4.042113e+01 0.000000e+00
      vertex   -6.634171e+00 4.029169e+01 0.000000e+00
      vertex   -1.017936e+01 4.997433e+01 0.000000e+00
    endloop
  endfacet
  facet normal 0.000000e+00 0.000000e+00 -1.000000e+00
    outer loop
      vertex   -1.017936e+01 4.997433e+01 0.000000e+00
      vertex   -6.634171e+00 4.029169e+01 0.000000e+00
      vertex   -6.688776e+00 4.015256e+01 0.000000e+00
    endloop
  endfacet
  facet normal 0.000000e+00 0.000000e+00 -1.000000e+00
    outer loop
      vertex   -1.017936e+01 4.997433e+01 0.000000e+00
      vertex   -6.688776e+00 4.015256e+01 0.000000e+00
      vertex   -6.722034e+00 4.000685e+01 0.000000e+00
    endloop
  endfacet
  facet normal 0.000000e+00 0.000000e+00 -1.000000e+00
    outer loop
      vertex   -1.017936e+01 9.997433e+01 0.000000e+00
      vertex   -1.793617e-01 9.997433e+01 0.000000e+00
      vertex   -1.017936e+01 4.997433e+01 0.000000e+00
    endloop
  endfacet
  facet normal 0.000000e+00 0.000000e+00 -1.000000e+00
    outer loop
      vertex   -1.017936e+01 4.997433e+01 0.000000e+00
      vertex   -1.793617e-01 9.997433e+01 0.000000e+00
      vertex   -1.793617e-01 4.997433e+01 0.000000e+00
    endloop
  endfacet
  facet normal 0.000000e+00 -1.000000e+00 0.000000e+00
    outer loop
      vertex   -1.017936e+01 -2.566654e-02 5.000000e+00
      vertex   -1.017936e+01 -2.566654e-02 0.000000e+00
      vertex   -1.793617e-01 -2.566654e-02 5.000000e+00
    endloop
  endfacet
  facet normal 0.000000e+00 -1.000000e+00 -0.000000e+00
    outer loop
      vertex   -1.793617e-01 -2.566654e-02 5.000000e+00
      vertex   -1.017936e+01 -2.566654e-02 0.000000e+00
      vertex   -1.793617e-01 -2.566654e-02 0.000000e+00
    endloop
  endfacet
  facet normal -1.000000e+00 -0.000000e+00 -0.000000e+00
    outer loop
      vertex   -1.017936e+01 9.997433e+01 5.000000e+00
      vertex   -1.017936e+01 9.997433e+01 0.000000e+00
      vertex   -1.017936e+01 4.997433e+01 5.000000e+00
    endloop
  endfacet
  facet normal -1.000000e+00 0.000000e+00 0.000000e+00
    outer loop
      vertex   -1.017936e+01 4.997433e+01 5.000000e+00
      vertex   -1.017936e+01 9.997433e+01 0.000000e+00
      vertex   -1.017936e+01 4.997433e+01 0.000000e+00
    endloop
  endfacet
  facet normal -1.000000e+00 -0.000000e+00 -0.000000e+00
    outer loop
      vertex   -1.017936e+01 4.997433e+01 5.000000e+00
      vertex   -1.017936e+01 4.997433e+01 0.000000e+00
      vertex   -1.017936e+01 -2.566654e-02 5.000000e+00
    endloop
  endfacet
  facet normal -1.000000e+00 0.000000e+00 0.000000e+00
    outer loop
      vertex   -1.017936e+01 -2.566654e-02 5.000000e+00
      vertex   -1.017936e+01 4.997433e+01 0.000000e+00
      vertex   -1.017936e+01 -2.566654e-02 0.000000e+00
    endloop
  endfacet
  facet normal 0.000000e+00 1.000000e+00 0.000000e+00
    outer loop
      vertex   -1.793617e-01 9.997433e+01 5.000000e+00
      vertex   -1.793617e-01 9.997433e+01 0.000000e+00
      vertex   -1.017936e+01 9.997433e+01 5.000000e+00
    endloop
  endfacet
  facet normal 0.000000e+00 1.000000e+00 0.000000e+00
    outer loop
      vertex   -1.017936e+01 9.997433e+01 5.000000e+00
      vertex   -1.793617e-01 9.997433e+01 0.000000e+00
      vertex   -1.017936e+01 9.997433e+01 0.000000e+00
    endloop
  endfacet
  facet normal 1.000000e+00 -0.000000e+00 0.000000e+00
    outer loop
      vertex   -1.793617e-01 -2.566654e-02 5.000000e+00
      vertex   -1.793617e-01 -2.566654e-02 0.000000e+00
      vertex   -1.793617e-01 4.997433e+01 5.000000e+00
    endloop
  endfacet
  facet normal 1.000000e+00 0.000000e+00 0.000000e+00
    outer loop
      vertex   -1.793617e-01 4.997433e+01 5.000000e+00
      vertex   -1.793617e-01 -2.566654e-02 0.000000e+00
      vertex   -1.793617e-01 4.997433e+01 0.000000e+00
    endloop
  endfacet
  facet normal 1.000000e+00 -0.000000e+00 0.000000e+00
    outer loop
      vertex   -1.793617e-01 4.997433e+01 5.000000e+00
      vertex   -1.793617e-01 4.997433e+01 0.000000e+00
      vertex   -1.793617e-01 9.997433e+01 5.000000e+00
    endloop
  endfacet
  facet normal 1.000000e+00 0.000000e+00 0.000000e+00
    outer loop
      vertex   -1.793617e-01 9.997433e+01 5.000000e+00
      vertex   -1.793617e-01 4.997433e+01 0.000000e+00
      vertex   -1.793617e-01 9.997433e+01 0.000000e+00
    endloop
  endfacet
endsolid